<?xml version="1.0" standalone="no"?>
<!DOCTYPE svg PUBLIC "-//W3C//DTD SVG 20010904//EN"
 "http://www.w3.org/TR/2001/REC-SVG-20010904/DTD/svg10.dtd">
<svg version="1.0" xmlns="http://www.w3.org/2000/svg"
 width="512.000000pt" height="512.000000pt" viewBox="0 0 512.000000 512.000000"
 preserveAspectRatio="xMidYMid meet">

<g transform="translate(0.000000,512.000000) scale(0.100000,-0.100000)"
fill="#d3d3d3" stroke="none">
<path d="M2415 4554 c-338 -39 -554 -102 -795 -231 -551 -296 -922 -817 -1034
-1450 l-6 -33 703 0 702 0 30 52 c17 29 62 85 102 124 202 202 516 242 762 97
82 -48 181 -146 221 -217 l32 -56 700 0 701 0 -7 53 c-26 201 -141 510 -266
712 -330 536 -893 885 -1525 945 -104 9 -253 11 -320 4z"/>
<path d="M2460 2934 c-76 -20 -129 -54 -188 -119 -70 -76 -96 -146 -96 -255 0
-121 27 -185 113 -271 49 -49 81 -71 125 -88 205 -76 405 7 499 207 27 59 31
78 31 152 0 74 -4 93 -31 152 -55 118 -142 192 -259 223 -71 18 -122 18 -194
-1z m171 -155 c86 -26 159 -126 159 -219 0 -93 -73 -193 -159 -219 -82 -24
-157 -9 -221 46 -54 47 -80 102 -80 173 0 158 147 265 301 219z"/>
<path d="M576 2323 c80 -601 399 -1112 894 -1435 669 -437 1528 -433 2196 11
484 321 799 832 878 1424 l5 37 -692 -1 -692 0 -43 -89 c-150 -312 -534 -439
-850 -280 -130 66 -237 179 -297 314 l-25 56 -689 0 -690 0 5 -37z"/>
</g>
</svg>
